<svg id="SvgjsSvg1161" width="288" height="288" xmlns="http://www.w3.org/2000/svg" version="1.1" xmlns:xlink="http://www.w3.org/1999/xlink" xmlns:svgjs="http://svgjs.com/svgjs"><defs id="SvgjsDefs1162"></defs><g id="SvgjsG1163"><svg xmlns="http://www.w3.org/2000/svg" display="block" preserveAspectRatio="none" viewBox="0 0 2048 2048" width="288" height="288"><defs><linearGradient id="a" x1="912.382" x2="554.264" y1="1362.61" y2="1478.98" gradientUnits="userSpaceOnUse"><stop offset="0" stop-color="#484D4C" class="svgShape stopColor484d4c-2"></stop><stop offset="1" stop-color="#696A6B" class="svgShape stopColor696a6b-3"></stop></linearGradient></defs><path d="M 0 0 L 2048 0 L 2048 2048 L 0 2048 L 0 0 z" fill="#000000" class="svgShape color000000-4 selectable"></path><path fill="#F6F9F7" d="M 897.148 1836.49 C 865.44 1832.98 820.901 1822 789.998 1812.72 C 652.917 1771.82 528.827 1695.98 429.909 1592.64 C 293.075 1449.26 212.241 1261.53 202.106 1063.6 C 199.14 1007.92 203.361 952.223 211.831 897.214 C 238.692 719.153 324.161 555.134 454.714 431.106 C 585.409 304.669 754.475 225.336 935.248 205.621 C 1005.85 197.891 1080.5 200.069 1150.62 210.938 C 1329.65 238.43 1494.56 324.334 1619.7 455.279 C 1777.59 622.671 1854.7 831.634 1847.74 1061.12 L 1847.46 1062.83 C 1845.38 1075.81 1845.67 1089.09 1844.01 1102.23 C 1840.25 1132.04 1836.49 1166.64 1830.07 1196.03 C 1787.81 1391.25 1676.41 1564.6 1516.4 1684.15 C 1484.55 1707.94 1451.06 1729.44 1416.18 1748.49 C 1260.28 1832.96 1081.12 1864.38 905.776 1838.02 C 904.087 1837.75 898.598 1837 897.148 1836.49 z" class="svgShape colorf6f9f7-5 selectable"></path><path fill="#3398AE" d="M 897.148 1836.49 C 865.44 1832.98 820.901 1822 789.998 1812.72 C 652.917 1771.82 528.827 1695.98 429.909 1592.64 C 293.075 1449.26 212.241 1261.53 202.106 1063.6 C 199.14 1007.92 203.361 952.223 211.831 897.214 C 238.692 719.153 324.161 555.134 454.714 431.106 C 585.409 304.669 754.475 225.336 935.248 205.621 C 1005.85 197.891 1080.5 200.069 1150.62 210.938 C 1329.65 238.43 1494.56 324.334 1619.7 455.279 C 1777.59 622.671 1854.7 831.634 1847.74 1061.12 C 1842.14 1060.66 1787.5 1001.37 1779.49 993.276 L 1595.03 807.106 C 1576.6 788.691 1537.42 744.319 1513.99 734.09 C 1481.86 715.716 1463.26 718.31 1426.35 718.977 C 1420.33 719.081 1411.59 718.276 1405.36 717.88 C 1406.62 727.242 1406.11 746.309 1406.15 756.738 L 1406.05 760.216 C 1399.92 764.355 1387.58 763.77 1380.46 762.198 L 1020.84 762.113 C 955.719 762.303 880.72 763.727 816.143 761.41 C 816.042 757.783 816.353 753.53 816.516 749.851 L 668.501 749.975 C 642.038 749.815 598.024 741.068 575.277 760.338 C 566.968 767.377 568.454 785.466 568.693 795.923 C 568.784 801.292 569.944 812.791 566.846 816.422 L 565.208 816.726 C 554.784 815.524 546.87 811.804 547.401 824.505 C 542.613 825.684 540.916 826.14 536.032 826.327 C 496.93 831.924 506.19 888.904 507.939 916.95 C 507.586 945.449 506.082 988.659 508.287 1016.78 C 516.939 1017.19 532.806 1016.94 540.504 1017.73 L 507.683 1017.86 C 505.443 1068.51 507.653 1129.52 507.354 1181.65 L 507.366 1280.72 C 507.323 1298.1 506.524 1315.39 507.069 1332.76 C 507.646 1351.15 522.032 1348.6 535.569 1348.37 L 538.485 1348.13 C 536.51 1349.04 535.431 1348.99 534.962 1350.56 C 533.164 1356.55 534.721 1366.29 535.019 1372.65 L 534.049 1376.35 C 535.561 1414.81 530.412 1431.94 554.658 1463.93 L 554.992 1465.68 L 557.42 1466.79 C 570.206 1483.61 608.789 1520.77 624.706 1536.57 L 761.839 1670.57 C 770.878 1679.28 813.024 1715.24 815.14 1723.46 C 813.479 1730.42 809.606 1730.16 804.172 1733.79 C 811.488 1744.93 825.232 1757.87 834.788 1767.49 L 873.877 1806.92 C 879.295 1812.37 898.566 1829.61 897.148 1836.49 z" class="svgShape color3398ae-6 selectable"></path><path fill="#F1AC34" d="M 816.043 718.684 C 816.517 674.945 802.26 621.249 865.472 618.964 C 904.066 617.569 941.932 618.75 980.483 618.86 L 1189.32 619.072 L 1306.24 619.077 C 1314.14 619.086 1322.35 618.967 1330.25 619.051 C 1363.07 619.401 1377.43 615.49 1396.13 646.076 C 1408.42 671.016 1400.92 686.782 1403.91 713.224 L 1405.36 717.88 C 1406.62 727.242 1406.11 746.309 1406.15 756.738 L 1406.05 760.216 C 1399.92 764.355 1387.58 763.77 1380.46 762.198 L 1020.84 762.113 C 955.719 762.303 880.72 763.727 816.143 761.41 C 816.042 757.783 816.353 753.53 816.516 749.851 C 817.48 743.604 816.355 725.784 816.043 718.684 z" class="svgShape colorf1ac34-7 selectable"></path><path fill="#FBE2AC" d="M 1403.91 713.224 L 1405.36 717.88 C 1406.62 727.242 1406.11 746.309 1406.15 756.738 L 1406.05 760.216 C 1399.92 764.355 1387.58 763.77 1380.46 762.198 C 1386.63 761.774 1395.57 762.026 1401.97 762.027 C 1399.93 745.875 1398.25 728.815 1403.91 713.224 z" class="svgShape colorfbe2ac-8 selectable"></path><path fill="#FAF7DC" d="M 913.085 705.967 C 903.697 710.336 894.839 713.379 884.384 709.764 C 877.805 707.556 872.451 702.695 869.62 696.359 C 863.352 681.97 870.782 664.114 885.444 658.795 C 892.318 656.301 897.443 656.781 904.519 657.117 C 908.705 659.597 910.337 660.19 913.333 663.852 L 913.305 665.369 C 902.052 671.542 868.539 655.601 880.174 701.622 C 886.651 698.059 895.043 692.207 901.367 687.98 C 901.26 683.316 900.583 684.169 902.641 680.799 L 904.622 679.715 C 915.16 682.862 913.367 697.263 913.085 705.967 z" class="svgShape colorfaf7dc-9 selectable"></path><path fill="#E5912C" d="M 880.174 701.622 C 886.651 698.059 895.043 692.207 901.367 687.98 L 901.442 693.277 C 893.739 697.843 890.68 699.035 886.68 707.244 C 884.001 705.524 882.437 703.817 880.174 701.622 z" class="svgShape colore5912c-10 selectable"></path><path fill="#F1AC34" d="M 886.68 707.244 C 890.68 699.035 893.739 697.843 901.442 693.277 C 900.137 702.46 897.005 708.236 886.68 707.244 z" class="svgShape colorf1ac34-11 selectable"></path><path fill="#FAF7DC" d="M 932.162 671.932 C 957.835 671.925 962.737 700.386 939.852 712.054 C 913.56 713.285 910.171 686.625 932.162 671.932 z" class="svgShape colorfaf7dc-12 selectable"></path><path fill="#E5912C" d="M 932.697 679.606 C 948.507 679.432 946.82 696.64 939.085 706.133 C 922.962 706.532 925.464 689.301 932.697 679.606 z" class="svgShape colore5912c-13 selectable"></path><path fill="#FAF7DC" d="M 975.461 673.233 C 1002.83 667.614 997.714 706.374 988.537 711.405 C 982.201 705.08 990.025 688.513 981.638 679.277 C 979.199 678.455 979.109 678.622 976.486 678.714 C 964.505 684.951 973.32 702.71 966.322 710.534 C 963.132 711.366 964.407 711.708 962.146 710.475 C 960.554 703.626 960.38 683.428 960.101 675.275 C 966.632 674.898 969.074 674.828 975.461 673.233 z" class="svgShape colorfaf7dc-14 selectable"></path><path fill="#FAF7DC" d="M 1001.44 697.926 C 996.851 679.82 1013.87 664.582 1029.27 677.457 C 1033.83 681.27 1032.69 689.341 1032.21 695.017 C 1025.02 695.516 1017.82 695.919 1010.63 696.225 C 1007.11 698.365 1006.33 696.521 1001.44 697.926 z" class="svgShape colorfaf7dc-15 selectable"></path><path fill="#F1AC34" d="M 1016.85 677.466 C 1021.44 678.623 1023.27 679.175 1024.82 683.934 C 1023.79 687.39 1024.65 685.89 1021.98 688.51 C 1017.39 688.317 1014.83 689.103 1012.46 684.978 C 1013.25 681.258 1014.42 680.359 1016.85 677.466 z" class="svgShape colorf1ac34-16 selectable"></path><path fill="#FBE2AC" d="M 1001.44 697.926 C 1006.33 696.521 1007.11 698.365 1010.63 696.225 C 1011.55 699.872 1011.33 699.977 1014.08 702.742 C 1019.54 705.014 1028.86 705.42 1035.51 706.655 C 1024.2 715.971 1015.78 716.863 1005.85 704.042 C 1004.32 702.041 1002.85 700.002 1001.44 697.926 z" class="svgShape colorfbe2ac-17 selectable"></path><path fill="#5B5B5B" d="M 536.032 826.327 C 536.576 794.086 521.387 728.322 566.018 721.283 C 596.729 716.44 629.053 718.693 660.103 718.222 C 712.004 717.435 764.204 719.303 816.043 718.684 C 816.355 725.784 817.48 743.604 816.516 749.851 L 668.501 749.975 C 642.038 749.815 598.024 741.068 575.277 760.338 C 566.968 767.377 568.454 785.466 568.693 795.923 C 568.784 801.292 569.944 812.791 566.846 816.422 L 565.208 816.726 C 554.784 815.524 546.87 811.804 547.401 824.505 C 542.613 825.684 540.916 826.14 536.032 826.327 z" class="svgShape color5b5b5b-18 selectable"></path><path fill="#298192" d="M1396.13 646.076C1417.69 637.154 1425.2 678.111 1425.67 692.036 1425.94 700.271 1425.48 711.332 1426.35 718.977 1420.33 719.081 1411.59 718.276 1405.36 717.88L1403.91 713.224C1400.92 686.782 1408.42 671.016 1396.13 646.076zM535.569 1348.37L538.485 1348.13C536.51 1349.04 535.431 1348.99 534.962 1350.56 533.164 1356.55 534.721 1366.29 535.019 1372.65L534.049 1376.35C529.318 1372.36 518.988 1355.08 516.049 1349.19 522.355 1349.28 529.506 1349.78 535.569 1348.37z" class="svgShape color298192-19 selectable"></path><path fill="#F6F9F7" d="M 1081.21 446.013 L 1095.86 445.753 C 1096.18 472.638 1095.48 499.723 1095.7 526.758 C 1093.25 526.882 1086.96 527.462 1085.24 526.37 C 1081.01 523.667 1084.51 521.288 1077.25 524.801 C 1069.12 528.734 1065.48 529.198 1056.73 526.55 C 1041.66 517.455 1037.06 497.887 1045.31 482.644 C 1048.85 475.941 1055.1 471.08 1062.47 469.293 C 1068.69 467.8 1074.81 470.195 1079.94 473.56 C 1081.63 470.912 1081.19 450.668 1081.21 446.013 z" class="svgShape colorf6f9f7-20 selectable"></path><path fill="#3398AE" d="M 1065.81 480.961 C 1081.06 479.515 1082.62 487.117 1081.39 501.699 C 1080.82 508.435 1079.06 512.561 1073.48 516.541 C 1061.75 515.57 1056.43 511.837 1056.47 498.1 C 1056.49 490.545 1060.05 485.641 1065.81 480.961 z" class="svgShape color3398ae-21 selectable"></path><path fill="#F6F9F7" d="M 843.533 310.895 C 858.929 310.819 878.908 308.913 892.281 317.832 C 902.795 324.844 903.755 338.786 896.404 348.584 C 889.596 357.659 881.841 359.463 871.239 360.782 L 859.097 361.204 L 859.313 389.982 L 843.991 390.077 C 843.338 364.226 843.826 336.995 843.533 310.895 z" class="svgShape colorf6f9f7-22 selectable"></path><path fill="#3398AE" d="M 863.895 323.356 C 881.409 323.274 896.125 335.616 877.356 347.535 C 870.271 348.866 866.121 348.697 859.028 348.396 C 859.149 341.954 857.786 330.567 860.029 324.683 C 860.47 323.528 862.108 323.682 863.895 323.356 z" class="svgShape color3398ae-23 selectable"></path><path fill="#F6F9F7" d="M 730.388 469.475 C 733.942 469.492 738.199 469.09 741.18 470.678 L 743.944 474.186 C 756.239 472.806 758.539 459.276 775.817 476.341 C 817.567 447.507 813.269 502.411 813.099 526.497 L 798.42 526.384 C 798.511 522.772 804.246 464.23 781.874 484.348 C 776.465 489.213 778.571 516.672 778.918 526.265 C 774.23 526.425 769.15 526.736 764.501 526.471 C 764.245 517.344 764.068 508.216 763.968 499.086 C 762.655 488.148 758.249 489.045 750.693 481.94 C 737.515 492.342 750.453 513.941 743.714 525.624 C 739.346 527.239 735.222 526.848 730.499 526.877 C 730.2 509.791 729.627 486.445 730.388 469.475 z" class="svgShape colorf6f9f7-24 selectable"></path><path fill="#638E95" d="M 750.693 481.94 C 754.656 480.826 754.626 480.647 758.609 481.011 C 765.54 485.205 764.227 491.786 763.968 499.086 C 762.655 488.148 758.249 489.045 750.693 481.94 z" class="svgShape color638e95-25 selectable"></path><path fill="#F6F9F7" d="M872.931 475.834C878.803 471.831 883.385 469.01 890.718 468.453 895.037 468.091 899.298 469.634 902.385 472.676 913.107 483.159 910.397 511.95 910.212 526.573 905.519 526.807 900.287 526.817 895.536 526.927 895.664 517.724 897.525 488.02 892.2 483.794 871.689 467.516 875.84 510.544 875.947 514.797L875.982 526.739 860.919 526.717C860.988 517.311 864.718 482.328 852.984 480.769 850.361 480.445 847.725 481.258 845.74 483.003 838.588 489.243 841.456 515.847 841.591 526.733 836.803 526.798 831.765 526.635 826.956 526.559 826.922 519.437 826.012 472.96 828.017 470.284 834.436 469.303 835.541 468.763 840.508 473.072 844.825 473.25 845.464 471.807 849.661 469.116 860.254 468.317 864.278 468.52 872.931 475.834zM971.069 331.236C977.631 330.41 983.86 330.051 990.146 332.444 997.559 335.249 1003.46 341.03 1006.41 348.384 1013.94 366.669 1005.92 383.016 987.922 390.088 948.175 398.757 936.188 345.016 971.069 331.236z" class="svgShape colorf6f9f7-26 selectable"></path><path fill="#3398AE" d="M 976.198 341.848 C 995.968 342.429 998.68 371.239 981.709 380.242 C 962.193 378.661 961.445 353.358 976.198 341.848 z" class="svgShape color3398ae-27 selectable"></path><path fill="#F6F9F7" d="M 689.073 468.308 C 724.805 467.164 732.453 520.148 693.912 527.908 C 687.093 527.862 681.473 526.992 675.628 523.26 C 668.988 519.099 664.426 512.316 663.076 504.597 C 659.699 485.716 670.458 471.454 689.073 468.308 z" class="svgShape colorf6f9f7-28 selectable"></path><path fill="#3398AE" d="M 685.67 480.875 C 707.989 479.005 708.732 505.678 695.742 515.708 C 675.845 520.497 674.175 493.397 685.67 480.875 z" class="svgShape color3398ae-29 selectable"></path><path fill="#F6F9F7" d="M 936.35 469.256 C 938.401 469.038 940.459 468.881 942.52 468.785 C 977.12 467.415 968.413 502.024 969.104 526.749 C 964.244 526.981 961.446 527.301 956.589 526.527 L 955.684 522.12 C 943.066 523.709 947.165 530.433 929.869 526.474 C 923.106 522.059 920.663 518.695 920.73 510.24 C 920.881 491.088 945.729 492.956 953.606 485.656 L 953.567 483.765 C 944.144 476.33 932.712 484.49 924.311 479.323 L 924.015 477.42 C 927.151 471.832 930.45 471.012 936.35 469.256 z" class="svgShape colorf6f9f7-30 selectable"></path><path fill="#298192" d="M 950.815 499.155 C 952.424 499.091 951.455 499.024 953.673 499.721 C 957.294 510.401 950.22 516.541 939.935 516.887 C 935.254 513.132 934.24 512.398 935.745 506.758 C 940.245 501.602 944.175 500.789 950.815 499.155 z" class="svgShape color298192-31 selectable"></path><path fill="#F6F9F7" d="M 1069.39 331.103 C 1079.35 330.345 1088.67 330.807 1094.82 339.965 C 1097.9 344.544 1101.83 355.208 1100.83 360.766 C 1093.96 371.207 1072.22 360.639 1063.62 366.412 L 1063.18 368.753 C 1069.72 383.192 1079.18 380.731 1091.81 376.837 L 1093.51 376.234 L 1095.28 377.363 C 1097.29 381.51 1096.97 379.429 1096.58 383.778 C 1091.11 393.14 1075.32 392.751 1066.53 389.337 C 1059.16 386.537 1053.29 380.805 1050.32 373.511 C 1042.77 355.429 1051.13 337.733 1069.39 331.103 z" class="svgShape colorf6f9f7-32 selectable"></path><path fill="#638E95" d="M 1075.13 341.019 C 1080.35 342.414 1088 346.869 1085.1 353.145 C 1081.92 355.358 1078.33 354.597 1074.33 354.381 C 1069.37 354.621 1067.22 355.383 1063.62 352.695 L 1063.29 350.328 C 1066.01 345.257 1069.89 343.025 1075.13 341.019 z" class="svgShape color638e95-33 selectable"></path><path fill="#F6F9F7" d="M 1219.84 469.267 C 1244.5 466.69 1251.23 479.369 1251.27 501.944 C 1242.85 502.148 1221.53 500.935 1214.98 502.717 L 1214.58 504.998 C 1219.26 521.009 1230.22 517.323 1243.01 513.456 C 1246.35 516.43 1248.03 516.949 1247.11 521.429 C 1241.22 529.001 1227.65 529.552 1219.49 526.481 C 1190.56 515.583 1192.46 481.083 1219.84 469.267 z" class="svgShape colorf6f9f7-34 selectable"></path><path fill="#298192" d="M 1222.75 479.933 C 1229.1 480.15 1236.25 482.532 1236.3 489.96 C 1233.65 492.422 1234.59 491.656 1230.25 492.162 C 1224.39 492.216 1219.29 493.498 1215.29 488.928 C 1216.17 484.066 1218.61 482.886 1222.75 479.933 z" class="svgShape color298192-35 selectable"></path><path fill="#F6F9F7" d="M 1381.15 469.21 C 1382.71 469.107 1384.27 469.029 1385.84 468.975 C 1407.21 468.3 1411.23 484.343 1411.54 501.9 C 1403.32 502.021 1384.35 500.967 1376.42 502.937 C 1375.3 503.216 1375.29 504.838 1374.94 506.287 C 1378.53 518.201 1391.04 517.042 1400.87 514.435 L 1402.06 514.106 L 1403.97 514.691 C 1407.61 517.773 1408.62 517.56 1407.06 521.967 C 1399.49 529.478 1385.68 529.229 1376.22 525.61 C 1360.48 519.584 1355.84 500.479 1361.75 485.879 C 1365.22 477.295 1372.87 472.516 1381.15 469.21 z" class="svgShape colorf6f9f7-36 selectable"></path><path fill="#298192" d="M 1382.96 479.744 C 1389.67 479.891 1396.08 482.695 1396.95 489.991 C 1394.75 492.469 1395.56 491.686 1391.25 492.16 C 1385.83 492.254 1380.12 493.139 1375.83 490.2 L 1375.55 487.928 C 1377.78 483.729 1379.24 482.93 1382.96 479.744 z" class="svgShape color298192-37 selectable"></path><path fill="#F6F9F7" d="M1162.64 449.175C1173.83 448.308 1191.17 449.315 1192.47 463.679 1188.59 472.556 1181.01 463.796 1175.67 462.398 1151.64 455.997 1142.45 486.913 1152.17 504.313 1161.39 520.843 1174.88 515.179 1188.01 507.837 1190.87 509.255 1192.75 514.445 1194.18 517.521 1183.7 528.814 1169.01 532.15 1154.91 525.507 1145.32 520.955 1138.01 512.695 1134.64 502.63 1126.6 478.555 1138.55 456.46 1162.64 449.175zM632.798 448.396C641.089 448.849 660.111 451.381 656.42 463.827 648.557 469.666 634.736 458.112 623.261 464.8 607.296 474.105 610.098 510.718 629.282 514.62 638.901 516.576 646.064 511.633 653.69 506.662 660.326 520.366 656.103 523.283 640.9 527.682 622.116 533.118 600.235 516.581 598.226 497.143 595.587 471.609 605.38 451.599 632.798 448.396zM1262.12 469.072C1269.84 469.027 1271.24 467.262 1274.88 474.032 1279.86 474.04 1285.31 468.425 1291.54 468.506 1317.04 468.841 1311.03 507.955 1310.68 526.237 1305.85 526.476 1300.7 526.417 1295.84 526.449L1296 497.975C1296.32 472.843 1276.45 472.905 1276.44 497.713 1276.44 507.341 1276.51 517.05 1276.46 526.676L1261.76 526.914C1261.49 508.019 1261.98 488.047 1262.12 469.072zM1007.92 468.421C1036.42 468.671 1031.32 491.187 1031.87 512.709 1031.98 517.158 1031.88 521.719 1031.89 526.173L1017.24 526.529C1017.14 513.167 1016.92 499.806 1016.56 486.448 1010.6 480.281 1010.91 480.238 1002.39 481.311 995.575 486.816 996.653 493.092 996.594 501.334 996.534 509.615 996.944 518.079 997.166 526.37L982.992 526.259C982.977 519.292 982.279 473.202 983.97 470.044 988.266 469.72 989.499 469.426 993.619 470.299L995.965 475.344C1001.14 473.083 1000.45 470.135 1007.92 468.421zM1135.04 330.141C1142.97 330.435 1158.73 330.902 1155.4 342.758 1147.91 349.096 1139.74 340.407 1131.27 343.717 1122.49 347.142 1122.68 365.679 1126.39 372.592 1134.07 386.86 1144.51 373.896 1153.5 377.124 1155.24 381.171 1155.75 381.197 1154.87 384.745 1152.08 387.518 1148.4 389.355 1144.67 390.578 1137.99 392.824 1130.68 392.222 1124.46 388.915 1100.43 376.29 1102.65 337.731 1135.04 330.141zM1172.54 316.393C1176.59 316.214 1180.91 316.488 1184.97 316.648L1185.3 330.64C1191.92 330.743 1193.73 329.619 1197.82 335.077 1198.77 343.128 1191.67 342.587 1185.91 342.536 1185.99 351.181 1183.54 374.1 1189.42 379.362 1192.49 379.724 1192.91 379.779 1195.84 380.714 1198.09 384.507 1197.23 384.581 1197.11 389.857 1189.04 390.545 1186.25 390.58 1178.18 389.907 1175.31 386.866 1173.46 383.872 1171.12 380.429 1170.23 369.835 1171.41 353.077 1169.45 343.852 1164.39 341.205 1159.97 339.877 1163.11 332.311 1165.83 331.46 1167.18 331.214 1169.93 330.69 1172.92 326.249 1168.43 320.799 1172.54 316.393zM1327.3 456.111L1341.85 456.027C1341.77 459.757 1341.21 464.34 1342.79 467.537 1345.56 469.74 1350.16 469.144 1353.95 469.169 1353.73 472.799 1353.86 475.334 1352.42 478.682 1349 481.047 1346.53 480.515 1341.93 480.926L1342.02 515.5C1345.27 515.929 1347.33 516.314 1350.55 517.005 1353.91 519.965 1352.94 519.475 1354.53 524.44 1349.68 529.75 1342.74 528.222 1336.05 527.933 1332.05 524.995 1331.15 523.872 1327.9 520.064 1327.56 512.725 1328.24 485.136 1325.98 480.698L1321.59 480.015C1317.25 474.289 1321.3 470.744 1325.69 467.76 1328.07 464.304 1327.37 460.545 1327.3 456.111zM1021.12 332.022L1036.18 331.831C1035.84 348.745 1039.23 392.352 1032.82 405.486 1030.23 410.807 1026.3 413.047 1020.94 415.011 1016.21 415.172 1010.51 416.012 1007.04 413.06 1004.06 397.957 1011.84 406.052 1019.03 401.029 1022.8 394.936 1021.17 342.812 1021.12 332.022zM940.183 329.7C942.348 330.191 941.558 329.956 943.476 331.388 944.891 336.232 944.636 339.231 942.485 343.725 936.284 348.978 935.01 342.778 927.42 353.875L926.669 354.992C926.71 366.645 926.569 378.298 926.246 389.947 921.825 390.084 914.483 390.95 911.276 388.687 911.144 369.641 911.16 350.593 911.325 331.547 914.802 331.586 917.713 331.656 921.179 331.908 924.228 334.673 923.217 334.121 924.649 339.119 927.467 338.506 934.409 331.948 940.183 329.7zM1447.44 468.853C1450.69 468.619 1450.69 468.464 1453.78 469.306 1455.24 471.342 1455.28 474.42 1454.89 476.948 1454.26 485.237 1444.71 482.434 1441.53 485.916 1434.48 493.637 1437.54 516.988 1437.66 526.769L1422.84 526.937C1422.63 520.159 1421.21 472.328 1424.08 469.793 1427.8 469.351 1428.38 469.06 1431.82 470.703 1434.27 473.235 1434.29 474.245 1435.02 477.519 1438.48 476.9 1443.21 471.803 1447.44 468.853zM1025.19 306.438C1028.07 305.024 1031.49 305.279 1034.13 307.106 1036.77 308.932 1038.21 312.044 1037.9 315.237 1037.59 318.43 1035.57 321.205 1032.63 322.487 1028.22 324.409 1023.09 322.459 1021.07 318.097 1019.05 313.735 1020.88 308.558 1025.19 306.438z" class="svgShape colorf6f9f7-38 selectable"></path><path fill="#298192" d="M 1405.36 717.88 C 1411.59 718.276 1420.33 719.081 1426.35 718.977 C 1463.26 718.31 1481.86 715.716 1513.99 734.09 C 1537.42 744.319 1576.6 788.691 1595.03 807.106 L 1779.49 993.276 C 1787.5 1001.37 1842.14 1060.66 1847.74 1061.12 L 1847.46 1062.83 C 1845.38 1075.81 1845.67 1089.09 1844.01 1102.23 C 1840.25 1132.04 1836.49 1166.64 1830.07 1196.03 C 1787.81 1391.25 1676.41 1564.6 1516.4 1684.15 C 1484.55 1707.94 1451.06 1729.44 1416.18 1748.49 C 1260.28 1832.96 1081.12 1864.38 905.776 1838.02 C 904.087 1837.75 898.598 1837 897.148 1836.49 C 898.566 1829.61 879.295 1812.37 873.877 1806.92 L 834.788 1767.49 C 825.232 1757.87 811.488 1744.93 804.172 1733.79 C 809.606 1730.16 813.479 1730.42 815.14 1723.46 C 813.024 1715.24 770.878 1679.28 761.839 1670.57 L 624.706 1536.57 C 608.789 1520.77 570.206 1483.61 557.42 1466.79 C 576.036 1469.43 596.678 1469.23 615.581 1469.25 L 691.746 1469.14 L 895.949 1469.02 C 909.835 1468.96 923.024 1471.57 936.812 1467.58 C 938.575 1467.08 938.859 1466.9 940.62 1466.64 L 942.158 1466.43 C 945.286 1466.13 948.392 1465.6 951.502 1465.13 C 960.114 1466.87 977.504 1468.58 985.267 1468.49 C 1022.26 1468.05 1352.5 1470.53 1361.26 1467.05 C 1376.75 1458.25 1379.92 1455.77 1387.77 1439.96 L 1390.24 1434.5 C 1404.26 1435.61 1425.6 1434.94 1440.18 1434.9 C 1438.9 1433.53 1437.97 1432.93 1437.97 1430.58 C 1437.98 1415.57 1438.03 1399.24 1437.98 1384.32 L 1437.93 1262.08 L 1437.97 866.511 C 1437.98 839.341 1437.61 790.428 1438.13 760.767 C 1438.57 760.119 1439.01 759.471 1439.45 758.823 C 1442.74 757.943 1444.93 757.619 1448.31 757.11 C 1433.92 756.731 1420.52 756.445 1406.15 756.738 C 1406.11 746.309 1406.62 727.242 1405.36 717.88 z" class="svgShape color298192-39 selectable"></path><path fill="#DBDBDA" d="M 1448.31 757.11 C 1478.61 756.121 1493.22 757.386 1494.3 792.465 C 1495.19 821.189 1494.76 849.903 1494.7 878.636 L 1494.46 1035.19 L 1494.11 1275.21 C 1494.08 1316.76 1494.35 1358.49 1494.04 1400.03 C 1493.96 1410.63 1494.09 1420.69 1486.21 1427.52 C 1475.31 1436.99 1461.72 1436.22 1448.35 1435.43 C 1445.63 1435.27 1442.9 1435.09 1440.18 1434.9 C 1438.9 1433.53 1437.97 1432.93 1437.97 1430.58 C 1437.98 1415.57 1438.03 1399.24 1437.98 1384.32 L 1437.93 1262.08 L 1437.97 866.511 C 1437.98 839.341 1437.61 790.428 1438.13 760.767 C 1438.57 760.119 1439.01 759.471 1439.45 758.823 C 1442.74 757.943 1444.93 757.619 1448.31 757.11 z" class="svgShape colordbdbda-40 selectable"></path><path fill="#5B5B5B" d="M 1405.36 717.88 C 1411.59 718.276 1420.33 719.081 1426.35 718.977 C 1463.26 718.31 1481.86 715.716 1513.99 734.09 C 1518.5 747.423 1529.72 755.979 1530.54 772.212 C 1531.1 783.425 1530.59 793.156 1530.27 804.333 C 1529.97 816.465 1529.86 828.602 1529.95 840.738 L 1530.09 1005.85 L 1530 1270.88 C 1529.97 1315.67 1530.21 1360.73 1529.64 1405.24 C 1529.39 1425.3 1526.34 1460.9 1504 1466.57 C 1485.05 1471.39 1373.69 1473.81 1361.26 1467.05 C 1376.75 1458.25 1379.92 1455.77 1387.77 1439.96 L 1390.24 1434.5 C 1404.26 1435.61 1425.6 1434.94 1440.18 1434.9 C 1442.9 1435.09 1445.63 1435.27 1448.35 1435.43 C 1461.72 1436.22 1475.31 1436.99 1486.21 1427.52 C 1494.09 1420.69 1493.96 1410.63 1494.04 1400.03 C 1494.35 1358.49 1494.08 1316.76 1494.11 1275.21 L 1494.46 1035.19 L 1494.7 878.636 C 1494.76 849.903 1495.19 821.189 1494.3 792.465 C 1493.22 757.386 1478.61 756.121 1448.31 757.11 C 1433.92 756.731 1420.52 756.445 1406.15 756.738 C 1406.11 746.309 1406.62 727.242 1405.36 717.88 z" class="svgShape color5b5b5b-41 selectable"></path><path fill="#F2C338" d="M 1046.38 944.592 C 1119.43 943.634 1191.75 944.878 1264.7 944.862 C 1266.86 947.323 1268.42 949.924 1270.55 952.107 L 1271.05 950.42 C 1273.44 948.672 1281.82 949.278 1285.97 949.085 L 1287.33 944.849 C 1293.52 944.602 1300.28 944.466 1306.4 944.119 C 1333.79 942.567 1343.03 945.279 1343.24 974.625 C 1367.36 975.901 1385.75 979.606 1387.55 1008.16 C 1388.48 1023.03 1387.6 1037.57 1387.31 1052.43 C 1387.07 1073.89 1386.99 1095.35 1387.06 1116.81 L 1386.98 1332 C 1386.97 1365.59 1385.85 1406.73 1387.07 1439.76 L 1387.77 1439.96 C 1379.92 1455.77 1376.75 1458.25 1361.26 1467.05 C 1352.5 1470.53 1022.26 1468.05 985.267 1468.49 C 977.504 1468.58 960.114 1466.87 951.502 1465.13 C 942.28 1459.02 935.665 1452.24 931.126 1441.95 L 932.999 1439.37 C 932.396 1417.41 932.929 1392.8 932.871 1370.59 L 932.954 1196.21 L 932.798 1069.91 C 932.803 1055.1 931.729 998.402 935.44 987.18 C 936.25 986.201 937.092 985.249 937.966 984.326 C 947.058 974.594 959.11 974.878 971.61 974.484 C 975.269 938.547 1001.55 943.752 1028.81 944.599 L 1028.51 950.924 C 1035.11 950.897 1038.91 951.033 1045.39 949.758 L 1046.38 944.592 z" class="svgShape colorf2c338-42 selectable"></path><path fill="#58C9DA" d="M 1046.38 944.592 C 1119.43 943.634 1191.75 944.878 1264.7 944.862 C 1266.86 947.323 1268.42 949.924 1270.55 952.107 L 1271.05 950.42 C 1273.44 948.672 1281.82 949.278 1285.97 949.085 L 1287.33 944.849 C 1293.52 944.602 1300.28 944.466 1306.4 944.119 C 1333.79 942.567 1343.03 945.279 1343.24 974.625 C 1342.82 999.02 1348.92 1022.33 1332.15 1041.01 L 1111.13 1042.13 C 1067.7 1042.11 1022.92 1042.49 979.582 1039.77 C 968.355 1020.92 970.542 996.185 971.61 974.484 C 975.269 938.547 1001.55 943.752 1028.81 944.599 L 1028.51 950.924 C 1035.11 950.897 1038.91 951.033 1045.39 949.758 L 1046.38 944.592 z" class="svgShape color58c9da-43 selectable"></path><path fill="#F6F9F7" d="M1270.55 952.107L1271.05 950.42C1273.44 948.672 1281.82 949.278 1285.97 949.085 1286.22 958.768 1291.36 1004.24 1274.86 1002.38 1259.25 992.543 1265.65 966.423 1270.55 952.107zM1045.39 949.758C1049.54 962.9 1049.25 984.846 1042.85 997.534 1040.7 1001.79 1038.61 1003.72 1034.23 1001.39 1027.63 992.126 1027.47 962.219 1028.51 950.924 1035.11 950.897 1038.91 951.033 1045.39 949.758zM1164.58 949.464C1166.04 949.462 1166.29 949.654 1167.74 950.009 1170.43 956.973 1169.53 991.87 1168.71 1000.39L1167.54 1001.32C1163.37 1001.71 1163.32 1001.66 1159.14 1000.97 1145.09 987.673 1149.91 967.595 1151.2 949.796L1164.58 949.464z" class="svgShape colorf6f9f7-44 selectable"></path><path fill="#F1AC34" d="M 1159.66 1352.92 L 1244.43 1391.56 C 1299.3 1416.06 1325.13 1425.2 1385.41 1429.38 C 1385.91 1432.6 1385.87 1432.67 1385.56 1435.93 L 1387.07 1439.76 L 1387.77 1439.96 C 1379.92 1455.77 1376.75 1458.25 1361.26 1467.05 C 1352.5 1470.53 1022.26 1468.05 985.267 1468.49 C 977.504 1468.58 960.114 1466.87 951.502 1465.13 C 942.28 1459.02 935.665 1452.24 931.126 1441.95 L 932.999 1439.37 C 941.995 1434.96 951.08 1434.79 960.762 1435.15 C 970.622 1428.89 986.724 1429.51 997.709 1426 C 1053.85 1408.03 1106.79 1378.83 1159.66 1352.92 z" class="svgShape colorf1ac34-45 selectable"></path><path fill="#E5912C" d="M 932.999 1439.37 C 941.995 1434.96 951.08 1434.79 960.762 1435.15 C 980.018 1439.65 1047.55 1438.11 1070.87 1437.92 L 1184.38 1437.89 L 1301.82 1437.82 C 1324.13 1437.93 1364.58 1439.54 1385.56 1435.93 L 1387.07 1439.76 L 1387.77 1439.96 C 1379.92 1455.77 1376.75 1458.25 1361.26 1467.05 C 1352.5 1470.53 1022.26 1468.05 985.267 1468.49 C 977.504 1468.58 960.114 1466.87 951.502 1465.13 C 942.28 1459.02 935.665 1452.24 931.126 1441.95 L 932.999 1439.37 z" class="svgShape colore5912c-46 selectable"></path><path fill="#F6F9F7" d="M 971.233 1064.04 C 998.74 1064.8 1029.5 1064.05 1057.29 1064.11 L 1231.95 1064.32 C 1264.58 1064.28 1306.43 1062.85 1338 1064.76 L 1337.96 1255.1 C 1314.98 1279.78 1263.88 1299.84 1233.22 1314.12 C 1207.55 1326.08 1184.77 1338.87 1160.03 1351.73 C 1155.48 1349.6 1150.17 1347.33 1145.78 1344.94 C 1093.17 1316.33 1017.87 1298.45 975.119 1255.87 C 969.085 1249.34 970.706 1231.9 970.892 1223.02 C 972.001 1170.05 971.665 1117.02 971.233 1064.04 z" class="svgShape colorf6f9f7-47 selectable"></path><path fill="#F9D452" d="M 975.119 1255.87 C 988.424 1254.33 1010.82 1255.08 1024.96 1255.15 L 1100.29 1255.24 L 1337.96 1255.1 C 1314.98 1279.78 1263.88 1299.84 1233.22 1314.12 C 1207.55 1326.08 1184.77 1338.87 1160.03 1351.73 C 1155.48 1349.6 1150.17 1347.33 1145.78 1344.94 C 1093.17 1316.33 1017.87 1298.45 975.119 1255.87 z" class="svgShape colorf9d452-48 selectable"></path><path fill="#3398AE" d="M1224.6 1142.47C1233.2 1142.75 1248.71 1140.67 1253.87 1143.82 1258.39 1149.35 1257.29 1160.89 1256.59 1167.95L1255.02 1169.12C1244.14 1169.08 1232.68 1169.44 1221.76 1169.62 1221.58 1162.96 1220.79 1149.75 1222.41 1143.69L1224.6 1142.47zM1221.94 1193.01C1233.57 1193.21 1245.2 1193.31 1256.84 1193.31 1257.05 1201.87 1256.85 1211.1 1256.83 1219.72L1222.2 1219.64 1221.94 1193.01zM1276.05 1142.81C1286.37 1142.31 1299.1 1142.79 1309.6 1142.91 1310 1151.29 1309.91 1160.63 1310.02 1169.09 1298.26 1169.5 1287.94 1169.87 1276.17 1169.48 1275.86 1160.85 1276.04 1151.49 1276.05 1142.81zM1275.95 1193.74C1287.28 1193.59 1298.6 1193.53 1309.93 1193.56L1310.04 1219.04C1299.11 1219.82 1287.01 1219.69 1276.07 1219.43 1275.71 1210.32 1275.7 1202.85 1275.95 1193.74zM1222.16 1095.15L1256.43 1095.23C1256.88 1103.5 1256.66 1112.18 1256.6 1120.49 1246.59 1121.07 1232 1120.76 1222.14 1120.23 1222.01 1111.99 1222.15 1103.41 1222.16 1095.15zM1276.19 1095.25C1287.34 1095.42 1298.49 1095.38 1309.64 1095.13 1309.95 1104.1 1309.87 1111.57 1309.58 1120.55 1298.42 1121.44 1287.2 1121.31 1276.06 1120.15 1275.9 1112.07 1276.12 1103.38 1276.19 1095.25z" class="svgShape color3398ae-49 selectable"></path><path fill="#F1AC34" d="M1002.17 1142.29C1012.29 1142.84 1023.47 1142.71 1033.68 1142.75 1033.77 1151.44 1033.69 1160.21 1033.67 1168.91 1023.22 1168.6 1012.76 1168.61 1002.3 1168.94 1001.94 1160.04 1002.09 1151.19 1002.17 1142.29zM1002.74 1193.05C1010.9 1193.34 1026.03 1191.32 1031.37 1194.91 1035.43 1200.71 1033.76 1211.97 1033.41 1219.53 1022.85 1219.86 1013.1 1219.5 1002.58 1219.15 1002.2 1210.76 1002.57 1201.51 1002.74 1193.05zM1071.75 1142.47C1076.91 1142.23 1081.71 1142.49 1086.87 1142.68L1087.06 1169.02 1071.75 1168.74 1056.76 1169.11C1056.26 1159.29 1056.24 1152.49 1056.66 1142.67 1061.41 1142.85 1066.93 1142.58 1071.75 1142.47zM1110.51 1193.03C1120.87 1192.97 1131.24 1193.07 1141.6 1193.34 1141.78 1201.7 1141.39 1210.63 1141.18 1219.03 1131.12 1219.12 1121.05 1219.04 1110.99 1218.81 1110.53 1209.78 1110.42 1202.07 1110.51 1193.03zM1111.02 1142.57C1121.8 1142.2 1130.35 1142.04 1141.08 1142.86 1141.48 1151.11 1141.15 1160.88 1141.08 1169.24 1130.65 1168.79 1121.6 1168.73 1111.2 1168.83 1110.94 1160.08 1110.88 1151.32 1111.02 1142.57zM1164.18 1142.68C1174.46 1142.7 1184.73 1142.83 1195 1143.06 1194.78 1151.7 1194.72 1160.34 1194.83 1168.99L1164.15 1169.01C1163.97 1160.32 1164.13 1151.38 1164.18 1142.68zM1056.41 1193.63C1065.54 1192.69 1077.42 1193.13 1086.8 1193.22 1086.97 1200.85 1087.55 1211.55 1086.56 1218.87 1075.51 1219.59 1067.8 1219.86 1056.64 1219.68L1056.41 1193.63zM1164.54 1193.17C1175.44 1193.11 1183.84 1193.32 1194.75 1194.02L1194.94 1219.06C1185.35 1218.65 1174.38 1218.92 1164.68 1218.94 1164.26 1210.05 1164.39 1202.03 1164.54 1193.17zM1003.02 1094.88C1010.71 1095.15 1025.43 1093.43 1030.57 1096.42 1034.83 1101.63 1033.21 1112.92 1032.92 1120.1 1022.84 1120.14 1012.75 1120.11 1002.67 1120.03 1002.43 1111.85 1002.81 1103.1 1003.02 1094.88zM1110.9 1095.03C1118.32 1094.98 1133.48 1092.97 1138.99 1096.53 1143.26 1102.34 1141.39 1112.99 1140.94 1120.66 1134.2 1120.9 1118.38 1119.95 1111.09 1119.71L1110.9 1095.03zM1165.19 1094.72C1174.79 1094.77 1184.39 1094.96 1193.99 1095.27 1194.15 1103.72 1194.4 1112.08 1194.03 1120.53L1164.41 1120.13C1164.34 1112.04 1164.88 1102.89 1165.19 1094.72zM1057.09 1095.14C1066.78 1095.01 1076.47 1095.15 1086.15 1095.53 1086.83 1102.84 1086.8 1112.63 1086.99 1120.13L1056.93 1119.89C1056.37 1112.22 1056.88 1102.94 1057.09 1095.14z" class="svgShape colorf1ac34-50 selectable"></path><path fill="#F6F9F7" d="M 831.261 821.104 C 843.213 820.538 920.379 817.602 927.106 823.767 C 934.075 830.153 935.743 846.676 935.742 855.793 C 935.74 886.076 933.032 916.533 933.186 946.787 C 933.255 960.227 934.615 973.762 935.44 987.18 C 931.729 998.402 932.803 1055.1 932.798 1069.91 L 932.954 1196.21 L 932.871 1370.59 C 932.929 1392.8 932.396 1417.41 932.999 1439.37 L 931.126 1441.95 C 935.665 1452.24 942.28 1459.02 951.502 1465.13 C 948.392 1465.6 945.286 1466.13 942.158 1466.43 L 940.62 1466.64 C 938.859 1466.9 938.575 1467.08 936.812 1467.58 C 923.024 1471.57 909.835 1468.96 895.949 1469.02 L 691.746 1469.14 L 615.581 1469.25 C 596.678 1469.23 576.036 1469.43 557.42 1466.79 L 554.992 1465.68 L 554.658 1463.93 C 530.412 1431.94 535.561 1414.81 534.049 1376.35 L 535.019 1372.65 C 534.721 1366.29 533.164 1356.55 534.962 1350.56 C 535.431 1348.99 536.51 1349.04 538.485 1348.13 L 535.569 1348.37 C 522.032 1348.6 507.646 1351.15 507.069 1332.76 C 506.524 1315.39 507.323 1298.1 507.366 1280.72 L 507.354 1181.65 C 507.653 1129.52 505.443 1068.51 507.683 1017.86 L 540.504 1017.73 L 784.056 1017.4 C 797.923 1017.51 843.26 1015.94 853.701 1018.34 C 855.57 1008.29 855.172 990.148 855.192 979.393 L 854.958 917.088 C 855.076 893.422 855.055 869.756 854.893 846.09 C 849.305 837.878 845.865 835.259 838.195 829.524 C 838.026 835.38 837.8 839.523 837.151 845.398 C 836.573 831.809 838.484 832.189 831.261 821.104 z" class="svgShape colorf6f9f7-51 selectable"></path><path fill="#DBDBDA" d="M 831.261 821.104 C 843.213 820.538 920.379 817.602 927.106 823.767 C 934.075 830.153 935.743 846.676 935.742 855.793 C 935.74 886.076 933.032 916.533 933.186 946.787 C 933.255 960.227 934.615 973.762 935.44 987.18 C 931.729 998.402 932.803 1055.1 932.798 1069.91 L 932.954 1196.21 L 932.871 1370.59 C 932.929 1392.8 932.396 1417.41 932.999 1439.37 L 931.126 1441.95 C 935.665 1452.24 942.28 1459.02 951.502 1465.13 C 948.392 1465.6 945.286 1466.13 942.158 1466.43 L 940.62 1466.64 C 938.859 1466.9 938.575 1467.08 936.812 1467.58 C 923.024 1471.57 909.835 1468.96 895.949 1469.02 L 691.746 1469.14 L 615.581 1469.25 C 596.678 1469.23 576.036 1469.43 557.42 1466.79 L 554.992 1465.68 L 554.658 1463.93 C 530.412 1431.94 535.561 1414.81 534.049 1376.35 L 535.019 1372.65 C 534.721 1366.29 533.164 1356.55 534.962 1350.56 C 535.431 1348.99 536.51 1349.04 538.485 1348.13 L 566.759 1348.19 C 591.402 1347.01 624.795 1347.95 650.084 1347.93 L 803.701 1348.32 C 816.034 1317.42 826.526 1318.87 855.124 1312.35 C 854.465 1282.53 856.659 1022.57 853.701 1018.34 C 855.57 1008.29 855.172 990.148 855.192 979.393 L 854.958 917.088 C 855.076 893.422 855.055 869.756 854.893 846.09 C 849.305 837.878 845.865 835.259 838.195 829.524 C 838.026 835.38 837.8 839.523 837.151 845.398 C 836.573 831.809 838.484 832.189 831.261 821.104 z" class="svgShape colordbdbda-52 selectable"></path><path fill="url(#a)" d="M 538.485 1348.13 L 566.759 1348.19 C 566.605 1356.34 565.885 1367.02 566.084 1374.76 C 566.335 1387.46 564.382 1423.42 570.509 1431.6 C 585.693 1440.92 678.813 1437.98 700.759 1437.91 L 858.441 1437.55 C 875.564 1437.4 917.725 1433.38 931.126 1441.95 C 935.665 1452.24 942.28 1459.02 951.502 1465.13 C 948.392 1465.6 945.286 1466.13 942.158 1466.43 L 940.62 1466.64 C 938.859 1466.9 938.575 1467.08 936.812 1467.58 C 923.024 1471.57 909.835 1468.96 895.949 1469.02 L 691.746 1469.14 L 615.581 1469.25 C 596.678 1469.23 576.036 1469.43 557.42 1466.79 L 554.992 1465.68 L 554.658 1463.93 C 530.412 1431.94 535.561 1414.81 534.049 1376.35 L 535.019 1372.65 C 534.721 1366.29 533.164 1356.55 534.962 1350.56 C 535.431 1348.99 536.51 1349.04 538.485 1348.13 z" class="svgShape colorgradient-53 selectable"></path><path fill="#638E95" d="M 554.658 1463.93 C 593.119 1468.51 636.87 1465.51 676.399 1466.07 C 764.415 1467.32 854.247 1464.7 942.158 1466.43 L 940.62 1466.64 C 938.859 1466.9 938.575 1467.08 936.812 1467.58 C 923.024 1471.57 909.835 1468.96 895.949 1469.02 L 691.746 1469.14 L 615.581 1469.25 C 596.678 1469.23 576.036 1469.43 557.42 1466.79 L 554.992 1465.68 L 554.658 1463.93 z" class="svgShape color638e95-54 selectable"></path><path fill="#434647" d="M 538.485 1348.13 L 566.759 1348.19 C 566.605 1356.34 565.885 1367.02 566.084 1374.76 C 549.625 1368.48 553.964 1367.03 535.019 1372.65 C 534.721 1366.29 533.164 1356.55 534.962 1350.56 C 535.431 1348.99 536.51 1349.04 538.485 1348.13 z" class="svgShape color434647-55 selectable"></path><path fill="#DBDBDA" d="M748.105 1082.47C775.588 1081.46 806.04 1084.45 834.311 1083.66L834.671 1104.01C816.523 1104.4 798.37 1104.52 780.218 1104.35 751.162 1104.92 722.101 1105.15 693.04 1105.06L692.974 1083.75C708.291 1082.37 732.329 1082.71 748.105 1082.47zM693.073 1116.54C737.402 1114.36 788.786 1116.71 834.148 1116.05 834.262 1122.33 834.857 1132.17 833.808 1137.92 786.971 1136.72 739.859 1138.83 693.084 1137.83L693.073 1116.54zM693.684 1148.46C735.79 1149.4 792.298 1149.82 834.457 1148.35 834.752 1155.82 834.66 1162.11 834.451 1169.59 831.85 1170.24 805.187 1170.01 800.401 1170.03L693.042 1170.15C692.954 1164.23 692.284 1153.72 693.684 1148.46zM588.333 1212.46C611.5 1211.49 644.986 1212.79 668.758 1213.21L668.867 1234.56C650.332 1233.62 629.478 1234.45 610.785 1234.87 584.84 1234.38 555.985 1233.64 530.153 1234.52 530.062 1228.17 529.422 1220.85 529.006 1214.44 540.373 1212.06 573.866 1212.94 588.333 1212.46zM529.704 1116.24C543.836 1115.88 664.766 1114.73 668.549 1118.19 669.49 1124.46 668.785 1131.4 668.457 1137.81 625.812 1135.94 573.391 1137.74 529.746 1137.93 529.442 1130.64 529.602 1123.53 529.704 1116.24zM693.009 1213.2C702.407 1212.71 721.422 1213.85 732.113 1213.81L834.638 1213.04C834.946 1220.83 834.784 1226.54 834.4 1234.35 789.253 1234.44 737.764 1233.55 693.065 1234.85L693.009 1213.2zM609.277 1148.48C624.525 1148.28 654.676 1147.27 669.024 1149.1L668.804 1170.06C642.892 1169.48 615.754 1169.86 589.75 1169.87 569.844 1169.92 549.937 1169.86 530.031 1169.68L529.724 1149.02C556.242 1149 582.76 1148.82 609.277 1148.48zM692.991 1245.95C716.642 1247.58 743.045 1247.15 766.874 1247.1 788.264 1247.05 813.059 1247.5 834.17 1246.02 834.656 1252.74 834.64 1259.96 834.746 1266.74 786.933 1267.42 741.005 1268.91 693.065 1266.98L692.991 1245.95zM592.941 1245.53C617.393 1244.71 644.482 1245.18 668.921 1245.78 669.049 1252.93 668.743 1258.91 668.339 1266.06 648.066 1266.7 627.077 1266.52 606.75 1266.49 581.175 1266.34 555.599 1266.44 530.025 1266.78L530.02 1246.01C550.747 1246.13 572.166 1245.71 592.941 1245.53zM529.42 1083.95L668.371 1084.05 668.544 1104.85 530.032 1104.84 529.42 1083.95zM702.059 1180.5C707.505 1179.91 736.645 1180.72 744.068 1180.76L834.871 1180.83C834.861 1186.25 836.443 1195.19 833.975 1199.61 833.14 1201.11 831.833 1200.65 829.25 1200.98L692.977 1200.96C692.95 1195.67 691.907 1186.88 693.757 1182.5 696.956 1179.83 696.773 1180.74 702.059 1180.5zM634.157 1180.49C641.853 1180.6 660.985 1178.67 665.622 1180.93 670.531 1186.2 668.993 1193.46 668.787 1201.02L568.25 1200.97C555.207 1201.16 542.162 1201.07 529.123 1200.71L529.4 1180.9C564.32 1181.1 599.24 1180.96 634.157 1180.49zM809.529 1277.47C817.05 1277.08 826.405 1277.24 834.076 1277.15 833.99 1283.76 834.356 1287.89 834.98 1294.43 821.241 1295.32 806.791 1294.59 792.933 1294.51L719.343 1294.13C710.652 1294.12 701.682 1294.43 692.971 1294.62 693.188 1289.03 693.083 1283.42 693.044 1277.82 728.873 1276.42 772.362 1278.15 809.529 1277.47zM623.441 1277.47C632.428 1277.28 658.299 1276.11 666.016 1277.99 669.817 1282.63 668.522 1287.94 668.079 1293.94 636.368 1294.64 604.646 1294.7 572.933 1294.13 558.521 1294.11 544.109 1294.29 529.702 1294.68 530.043 1289.69 529.971 1283.15 530.046 1278.02 561.178 1278.11 592.311 1277.93 623.441 1277.47zM538.639 1049.5C580.006 1048.07 626.567 1048.97 668.292 1048.88L668.16 1064.08 659.25 1065C627.522 1065.14 595.512 1063.09 563.722 1064.56 552.778 1065.06 541.731 1065.69 530.821 1064.61 530.017 1060.33 528.301 1054.84 530.02 1051.18 533.623 1048.94 533.697 1049.71 538.639 1049.5zM693.056 1048.84L834.803 1049.11C834.948 1054.81 834.788 1058.56 834.416 1064.19 822.644 1065.43 796.552 1064.39 783.433 1064.27 753.27 1063.98 723.107 1063.92 692.944 1064.09L693.056 1048.84z" class="svgShape colordbdbda-56 selectable"></path><path fill="#E5912C" d="M 815.634 759.088 C 818.541 776.368 830.143 806.149 817.847 820.781 L 816.67 822.197 C 816.4 822.507 816.129 822.817 815.858 823.127 C 815.92 830.93 815.865 839.024 816.066 846.797 C 822.346 846.915 829.889 847.281 836.006 846.585 L 837.151 845.398 C 837.8 839.523 838.026 835.38 838.195 829.524 C 845.865 835.259 849.305 837.878 854.893 846.09 C 855.055 869.756 855.076 893.422 854.958 917.088 L 855.192 979.393 C 855.172 990.148 855.57 1008.29 853.701 1018.34 C 843.26 1015.94 797.923 1017.51 784.056 1017.4 L 540.504 1017.73 C 532.806 1016.94 516.939 1017.19 508.287 1016.78 C 506.082 988.659 507.586 945.449 507.939 916.95 C 506.19 888.904 496.93 831.924 536.032 826.327 C 540.916 826.14 542.613 825.684 547.401 824.505 C 546.87 811.804 554.784 815.524 565.208 816.726 L 566.846 816.422 C 569.944 812.791 568.784 801.292 568.693 795.923 L 740.253 796.057 C 761.394 795.949 795.554 798.031 814.956 793.747 C 815.093 782.944 814.943 769.679 815.634 759.088 z" class="svgShape colore5912c-57 selectable"></path><path fill="#476175" d="M 507.939 916.95 L 768.005 917.228 C 796.314 917.293 826.932 916.444 854.958 917.088 L 855.192 979.393 C 855.172 990.148 855.57 1008.29 853.701 1018.34 C 843.26 1015.94 797.923 1017.51 784.056 1017.4 L 540.504 1017.73 C 532.806 1016.94 516.939 1017.19 508.287 1016.78 C 506.082 988.659 507.586 945.449 507.939 916.95 z" class="svgShape color476175-58 selectable"></path><path fill="#F6F9F7" d="M 681.653 934.284 C 688.351 933.976 701.172 934.871 704.898 941.314 L 703.894 944.166 C 697.877 948.962 689.589 945.994 681.332 946.226 C 662.584 946.753 659.962 974.47 673.984 983.141 C 683.493 989.022 694.388 985.275 704.951 982.759 C 701.738 999.984 685.833 1004.24 672.086 994.924 C 643.804 975.76 643.384 940.096 681.653 934.284 z" class="svgShape colorf6f9f7-59 selectable"></path><path fill="#F6F9F7" d="M624.513 934.33C632.281 933.659 643.643 935.439 649.04 941.549L648.812 943.503C637.357 952.355 622.888 941.388 613.113 951.556 609.699 955.662 607.567 965.645 608.711 970.685 613.247 990.679 634.387 986.549 647.748 984.365 649.677 1003.32 604.649 1005.75 597.033 973.176 595.075 964.735 596.634 955.86 601.35 948.591 606.971 940.08 614.902 936.382 624.513 934.33zM709.476 935.109C725.172 934.566 741.477 934.827 757.231 934.878 755.912 938.402 754.416 941.975 753.005 945.471L737.423 944.982C737.062 955.094 737.252 966.509 737.211 976.724L736.987 995.766C733.05 995.76 728.853 995.467 724.897 995.273 724.523 978.526 724.515 961.773 724.874 945.025 720.496 944.851 713.794 945.236 710.333 943.085 708.271 939.431 709.008 940.199 709.476 935.109z" class="svgShape colorf6f9f7-60 selectable"></path><path fill="#DBDBDA" d="M 815.634 759.088 C 818.541 776.368 830.143 806.149 817.847 820.781 L 816.67 822.197 C 816.4 822.507 816.129 822.817 815.858 823.127 C 808.55 822.396 801.238 821.593 793.906 821.21 C 793.807 825.906 793.897 831.891 793.17 836.425 C 792.72 832.178 792.863 826.332 792.839 821.942 C 787.601 821.92 775.414 821.449 771.041 822.78 C 767.093 821.394 753.128 821.777 748.159 821.749 C 745.21 820.447 728.287 820.683 724.833 821.7 C 719.744 821.948 709.804 821.286 704.362 821.088 C 699.69 820.994 695.009 820.845 690.36 820.452 C 681.114 819.669 681.247 823.7 680.396 830.557 C 680.368 825.35 681.251 825.464 678.791 822.106 C 674.719 820.151 667.262 821.348 661.569 820.983 C 661.206 823.828 660.982 825.919 660.269 828.733 C 660.122 826.721 660.288 822.52 658.627 821.575 C 653.501 818.66 642.943 820.899 636.82 821.279 C 629.982 822.146 621.892 821.82 615.014 821.457 C 608.857 820.435 599.485 820.905 592.989 821.061 C 593.009 827.935 593.403 839.734 592.852 846.227 C 591.842 839.457 592.061 829.148 592.002 822.013 C 584.204 822.116 576.404 822.028 568.61 821.749 C 567.334 817.39 568.599 818.876 565.208 816.726 L 566.846 816.422 C 569.944 812.791 568.784 801.292 568.693 795.923 L 740.253 796.057 C 761.394 795.949 795.554 798.031 814.956 793.747 C 815.093 782.944 814.943 769.679 815.634 759.088 z" class="svgShape colordbdbda-61 selectable"></path><path fill="#FAF7DC" d="M547.401 824.505C546.87 811.804 554.784 815.524 565.208 816.726 568.599 818.876 567.334 817.39 568.61 821.749 567.917 830.534 568.048 839.256 568.051 848.062L547.895 847.99C547.524 840.612 546.825 831.732 547.401 824.505zM636.82 821.279C642.943 820.899 653.501 818.66 658.627 821.575 660.288 822.52 660.122 826.721 660.269 828.733 660.217 835.226 660.314 841.832 660.346 848.335L636.939 848.332C636.358 838.219 636.4 831.42 636.82 821.279zM724.833 821.7C728.287 820.683 745.21 820.447 748.159 821.749 749.235 831.587 748.612 838.328 747.722 848.132 740.414 848.392 732.295 848.185 724.916 848.146L724.833 821.7zM680.396 830.557C681.247 823.7 681.114 819.669 690.36 820.452 695.009 820.845 699.69 820.994 704.362 821.088L703.843 848.12C684.633 848.773 680.018 851.544 680.396 830.557zM592.989 821.061C599.485 820.905 608.857 820.435 615.014 821.457L614.712 848.053C609.322 848.173 598.483 848.746 593.697 847.789L592.852 846.227C593.403 839.734 593.009 827.935 592.989 821.061zM771.041 822.78C775.414 821.449 787.601 821.92 792.839 821.942 792.863 826.332 792.72 832.178 793.17 836.425L793.034 848C785.476 848.443 779.477 848.59 771.906 848.511 770.783 838.851 770.937 832.478 771.041 822.78z" class="svgShape colorfaf7dc-62 selectable"></path><path fill="#B9B9B6" d="M 1406.15 756.738 C 1420.52 756.445 1433.92 756.731 1448.31 757.11 C 1444.93 757.619 1442.74 757.943 1439.45 758.823 C 1439.01 759.471 1438.57 760.119 1438.13 760.767 C 1437.61 790.428 1437.98 839.341 1437.97 866.511 L 1437.93 1262.08 L 1437.98 1384.32 C 1438.03 1399.24 1437.98 1415.57 1437.97 1430.58 C 1437.97 1432.93 1438.9 1433.53 1440.18 1434.9 C 1425.6 1434.94 1404.26 1435.61 1390.24 1434.5 C 1394.5 1433.67 1404.14 1433.92 1408.95 1433.91 C 1409.73 1391.91 1408.95 1351 1408.91 1309.01 L 1408.73 1033.64 L 1408.93 871.792 C 1408.92 836.797 1409.96 794.465 1406.05 760.216 L 1406.15 756.738 z" class="svgShape colorb9b9b6-63 selectable"></path><path fill="#638E95" d="M 1028.81 944.599 L 1046.38 944.592 L 1045.39 949.758 C 1038.91 951.033 1035.11 950.897 1028.51 950.924 L 1028.81 944.599 z" class="svgShape color638e95-64 selectable"></path><path fill="#6EBCC6" d="M 1264.7 944.862 L 1287.33 944.849 L 1285.97 949.085 C 1281.82 949.278 1273.44 948.672 1271.05 950.42 L 1270.55 952.107 C 1268.42 949.924 1266.86 947.323 1264.7 944.862 z" class="svgShape color6ebcc6-65 selectable"></path><path fill="#B9B9B6" d="M1056.01 792.148C1059.57 793.282 1061.2 794.414 1062.95 797.607 1063.51 801.395 1062.69 802.211 1060.93 805.607L1059.54 806.983C1054.15 804.123 1054.71 797.206 1056.01 792.148zM1056.8 828.231C1060.09 829.36 1061.16 829.794 1063.01 832.571 1063.57 836.549 1062.21 838.561 1060.6 842.462L1060.02 842.549C1054.09 840.097 1054.77 833.284 1056.8 828.231zM1099.36 828.272C1102.08 828.89 1101.92 828.786 1104.15 830.443 1106.01 834.384 1105.18 838.159 1104.86 842.666 1101.33 842.214 1102.45 842.8 1099.71 841.019 1097.82 837.101 1098.89 832.83 1099.36 828.272zM1056.89 865.099C1064.45 866.391 1062.82 873.394 1060.67 878.711 1053.12 876.371 1055.2 871.192 1056.89 865.099zM1327.43 865.568C1333.88 867.965 1334.66 870.129 1334.08 876.256 1331.22 876.869 1332.55 877.065 1329.96 875.581 1327.71 872.062 1327.9 869.876 1327.43 865.568zM1284.22 791.605C1286.55 794.635 1286.15 801.774 1283.25 804.6 1281.07 801.41 1280.81 801.446 1280.24 797.492 1281.07 794.118 1281.69 793.997 1284.22 791.605zM1098.95 866.086L1102.68 867.496C1105.38 871.297 1104.55 871.36 1105.13 876.733 1103.4 876.321 1102.01 875.886 1100.31 875.371 1098.16 871.865 1098.98 870.997 1098.95 866.086z" class="svgShape colorb9b9b6-66 selectable"></path><path fill="#9D9FA1" d="M 1329.91 792.581 L 1331.26 794.181 C 1331.86 799.041 1331.67 800.461 1331.15 805.375 C 1326.28 801.703 1326.93 797.114 1329.91 792.581 z" class="svgShape color9d9fa1-67 selectable"></path><path fill="#5B5B5B" d="M 1148.13 829.62 L 1149.39 830.621 C 1151.08 834.817 1150.76 837.673 1150.82 842.166 C 1147.23 839.36 1148.05 833.748 1148.13 829.62 z" class="svgShape color5b5b5b-68 selectable"></path><path fill="#9D9FA1" d="M1283.53 828.706L1284.51 829.644C1285.49 833.094 1284.8 837.827 1284.53 841.534 1280.99 836.796 1282.49 834.233 1283.53 828.706zM1329.03 902.683C1332.15 906.4 1331.98 909.638 1332.21 914.362 1327.76 910.969 1328.85 907.967 1329.03 902.683zM1145.99 793.473L1147.36 794.592C1148.33 797.919 1147.79 801.582 1147.55 805.104 1144.4 801.043 1145.33 798.224 1145.99 793.473z" class="svgShape color9d9fa1-69 selectable"></path><path fill="#5B5B5B" d="M 971.983 829.65 L 973.473 830.862 C 975.228 835.533 974.937 837.214 975.026 842.347 C 972.264 838.192 972.257 834.569 971.983 829.65 z" class="svgShape color5b5b5b-70 selectable"></path><path fill="#7F8381" d="M 1057.23 904.568 L 1058.28 905.385 C 1059.62 907.889 1059.13 912.439 1059.07 915.532 L 1057.65 914.413 C 1056.24 911.072 1056.91 908.256 1057.23 904.568 z" class="svgShape color7f8381-71 selectable"></path><path fill="#9D9FA1" d="M 1237.02 903.612 C 1239.83 905.769 1239.35 911.836 1239.62 915.366 L 1238.4 914.371 C 1236.58 910.525 1237.02 908.015 1237.02 903.612 z" class="svgShape color9d9fa1-72 selectable"></path><path fill="#B9B9B6" d="M 1015.86 794.447 L 1017.42 794.635 L 1017.79 804.217 C 1014.77 801.706 1014.72 797.892 1015.86 794.447 z" class="svgShape colorb9b9b6-73 selectable"></path></svg></g></svg>